#!OML:ASF F:\VICON\USERDATA\INSTALL\rory3\rory3.ASF
:FULLY-SPECIFIED
:DEGREES
99
root 0.3979909275191919 17.758904090752686 40.41891403729524 -1.9461042494990477 -0.5206329460689221 2.4252466700260142
lfemur 6.223340801586987 -2.356366845481696 -26.76188590376345
ltibia 16.632590660367036
lfoot -4.901714884228583 -1.8001890889936365
ltoes -3.8941786933823663
rfemur -24.8065234338117 3.871456530716692 19.67025708038079
rtibia 37.42833829969967
rfoot -3.939590760791937 -8.696724867376156
rtoes 0.8072886730551976
lowerback 9.669604784174464 -0.7451097678931445 -3.348460774829488
upperback 0.568967831395619 -0.06570531377866518 1.1005146961541872
thorax -4.98362777059178 0.033170251334324385 1.8766411955127933
lowerneck -16.522219517932108 -2.9064905195289943 -2.4160647065873295
upperneck 20.879974748503695 -3.6767253710598946 1.3457890489894495
head 9.38647253951907 -1.7523370272793344 0.3699649308152772
lclavicle -1.957644383633787e-15 8.913786467539399e-16
lhumerus -29.028906662502497 -1.454942432478304 83.12942591786401
lradius 21.60874732852214
lwrist 4.717327282335242
lhand -26.9107526845296 23.621810211669203
lfingers 7.12502
lthumb -0.3492605411975984 53.498153750811404
rclavicle -1.9512231217419268e-15 9.086310023598249e-16
rhumerus -29.669299082777584 -18.039746817637102 -77.80276166812672
rradius 24.663307584831966
rwrist 6.8075994181650845
rhand -17.311703525180977 22.751281775631124
rfingers 7.12502
rthumb 8.94347100441314 -6.844086759856143
100
root 0.3318741526235849 17.700695873401468 41.012481680471176 -1.7023078606605664 -0.09160935166591644 2.598565781141953
lfemur 8.66941434927378 -2.4077833404841518 -26.717499836289136
ltibia 12.836800510853159
lfoot -4.684606391216954 -2.4013145607325956
ltoes -3.894940851379712
rfemur -24.667342842102038 4.833594941867919 19.047553122013007
rtibia 26.534293588047042
rfoot -3.771322279443357 -8.935874939355887
rtoes 0.7314731703520692
lowerback 9.61013993041138 -0.8493682206275489 -3.206139286828539
upperback 0.5477903171319342 -0.3263810844211441 1.1485193696803606
thorax -4.895038428382527 -0.20399887636785652 2.3344796503219585
lowerneck -16.535289319411135 -2.912980431450399 -2.4234659170266113
upperneck 20.882850658400343 -3.6799662472941046 1.3681710896520838
head 9.385068401102188 -1.7561962390678234 0.3749116074921834
lclavicle -1.957644382157038e-15 8.913786481634337e-16
lhumerus -28.669838791663526 -0.8899035958976296 83.16246967670898
lradius 22.106525119313744
lwrist 4.87768671175434
lhand -26.91384990886005 23.69484270051848
lfingers 7.12502
lthumb -0.3553896553569049 53.54392656770843
rclavicle -1.9512231215243226e-15 9.08631002554014e-16
rhumerus -29.95491783090175 -18.75696605409588 -77.51571404432207
rradius 24.31440362849017
rwrist 7.73608623128948
rhand -17.339391626050297 22.747508381741362
rfingers 7.12502
rthumb 8.947052359948206 -6.851006048869714
101
root 0.2595812519390831 17.639186506766798 41.66906586532979 -1.6466878716642972 0.11746916985553746 2.4957975867507707
lfemur 10.198929659365561 -2.843031045740582 -26.40400374475533
ltibia 11.217654831960143
lfoot -3.6202095168816473 -2.4267245644060327
ltoes -3.8957443524293787
rfemur -23.8168403059422 5.3625980132482916 19.319818230433032
rtibia 18.84711822550493
rfoot -3.6991039899236267 -8.974555675833649
rtoes 0.708300466310614
lowerback 9.59042713218548 -0.8966445728912794 -2.811098618650586
upperback 0.5237586430840329 -0.5424238962148082 1.2136221330408792
thorax -4.80429200315221 -0.41227271124389264 2.751636221851467
lowerneck -16.55273086516624 -2.9301600212448085 -2.4498992265447783
upperneck 20.926080074190438 -3.6591013544233193 1.4147735596753113
head 9.390434044657914 -1.7580879257136637 0.38100283484689157
lclavicle -1.9576443827413914e-15 8.91378647296956e-16
lhumerus -28.78732584921579 -0.6792795446704241 83.1050132036849
lradius 22.698642017635187
lwrist 5.0420924919152394
lhand -26.920732953266658 23.76868612484474
lfingers 7.12502
lthumb -0.3609243972382205 53.60033050272291
rclavicle -1.9512231209499065e-15 9.086310030821552e-16
rhumerus -30.227219711939583 -19.498924922857743 -77.17369591807615
rradius 23.88342970517697
rwrist 8.792965818553157
rhand -17.366656163453314 22.745989558549006
rfingers 7.12502
rthumb 8.948992286494606 -6.866075697286375
102
root 0.18507069509789217 17.602297460430087 42.2870262813349 -1.7364160428206799 0.1057163560583203 2.0407955752201565
lfemur 10.992680070440823 -3.5360005366379577 -25.977698022448077
ltibia 12.29079351808727
lfoot -3.405842727106463 -2.668484216269067
ltoes -3.7932829442232125
rfemur -23.42731693802775 5.167026571906099 20.137824975269073
rtibia 16.918253157676556
rfoot -3.584191211987169 -8.609439961923576
rtoes 0.6365508213320701
lowerback 9.598545956995341 -0.8887414548370324 -2.1920418728551976
upperback 0.5040822517747587 -0.7105623732078941 1.315047271915824
thorax -4.724275911304112 -0.5855628202865928 3.115386204814062
lowerneck -16.562370775527288 -2.9452856164274968 -2.4628144400837657
upperneck 20.944546281347005 -3.655205285392299 1.4239613577020356
head 9.398386563303344 -1.757218652998852 0.38589044789905647
lclavicle -1.9576443828285073e-15 8.913786472925629e-16
lhumerus -29.231668988859983 -0.6617473173258444 83.02146781361562
lradius 23.37026415804683
lwrist 5.228829486308907
lhand -26.9267884856591 23.848390402052743
lfingers 7.12502
lthumb -0.3666365627181558 53.66397709961202
rclavicle -1.9512231212024185e-15 9.086310028477912e-16
rhumerus -30.25886418945679 -19.81699314470955 -76.8878033737177
rradius 23.35943436368871
rwrist 9.870886962767322
rhand -17.390853723177194 22.74649587760051
rfingers 7.12502
rthumb 8.948737864377975 -6.879935877430527
